<svg clip-rule="evenodd" fill-rule="evenodd" stroke-linejoin="round" stroke-miterlimit="2" viewBox="0 0 2500 2500" xmlns="http://www.w3.org/2000/svg"><ellipse cx="1248.25" cy="1248.94" fill="#eb2316" rx="1114.62" ry="1122.11"/><g fill-rule="nonzero"><path d="m1248.09 2499.93c-688.14-5.5-1250.63-575.65-1248.09-1265.07 4.19-685.2 572.95-1240.31 1264.01-1234.86 690.64 5.88 1241.39 570.64 1235.94 1269.68-5.03 675.54-574.62 1235.28-1252.28 1230.24h.42zm-225.33-1474.87a3520.92 3520.92 0 0 1 49.42-32.3 453.45 453.45 0 0 1 249.46-74.82c195.4 0 369.9 126.4 431.13 312.3 46.9 134.69 33.5 268.12-18.85 397.77-131.5 329.38-524.78 477.5-822.14 311.76-129.42-72.17-206.07-184.62-249.62-327.28l247.1-63.36c10.47 17.62 18.85 33.57 28.9 48.25 54.45 82.24 126.07 135.11 227.42 137.63 156.64 2.94 295.7-135.95 307-303.78 13.63-126.74-73.78-243.99-198.94-266.87-129-27.27-226.17 26.44-304.07 125.88-13.4 16.79-25.13 35.67-38.53 54.55l-222.81-96.5c2.1-11.34 3.35-19.3 5.44-27.28 44.82-180.43 87.54-361.69 136.12-541.27 56.96-212.74 192.66-350.78 407.93-404.07a1342.04 1342.04 0 0 1 185.96-29.8c65.75-7.12 131.93-7.96 202.3-11.74a1086.8 1086.8 0 0 0 -402.19-77.16c-597.14 0-1088.52 492.27-1088.52 1090.52 0 397.98 217.46 765.56 565.94 956.62 510.96 285.33 1163.49 110.78 1465.04-392.31 291.08-485.89 144.91-1095.33-207.83-1368.73-20.07 137.44-186.47 237.06-317.8 274.43a1679.42 1679.42 0 0 1 -300.7 50.77c-89.22 8.4-179.26 1.68-272.24 1.68z" fill="#fff"/><path d="m1875.49 355.81c-57.8 146.86-162.08 225.33-301.97 259.31-145.75 35.67-294.01 33.57-442.7 31.05-43.13-1.26-86.7 0-137.37 0a396.9 396.9 0 0 1 128.16-172.03c79.58-60.84 172.56-89.37 269.3-96.5 158.74-12.6 318.3-14.7 484.58-21.83z" fill="#008f32"/></g></svg>