<svg xmlns="http://www.w3.org/2000/svg" width="211" height="68" fill="none" viewBox="0 0 211 68">
  <path fill="#fff" d="M34 0C15.252 0 0 15.252 0 34c0 18.748 15.252 34 34 34 18.748 0 34-15.252 34-34C68 15.252 52.748 0 34 0Z"/>
  <path fill="#EE312F" d="M52.646 10.705c-4.156 10.796-15.189 9.399-22.968 9.669l-1.89 7.364c9.598-7.824 22.291-.066 20.934 11.74-.914 7.952-6.584 13.153-12.58 14.648-6.535 1.63-13.774-.808-17.02-7.467-.344-.705-.944-2.112-1.173-2.867l6.892-1.77c.12.397.327.781.545 1.132 4.612 7.44 13.96 3.719 15.015-3.999 1.074-7.851-9.943-12.034-14.964-2.858l-6.11-2.604-.105-.046 2.275-9.13c.362-1.625 1.446-5.866 1.571-6.275.194-.635.237-.846.456-1.421C27.44 6.531 35.18 5.492 42.06 5.492c.275 0 .546.004.819.007A29.833 29.833 0 0 0 34 4.155C17.517 4.155 4.155 17.517 4.155 34c0 16.483 13.362 29.844 29.845 29.844 16.482 0 29.844-13.361 29.844-29.844 0-9.426-4.374-17.826-11.198-23.295Z"/>
  <path fill="#119B4A" d="M49.928 8.688c-1.158 3.595-3.175 5.854-6.294 7.07-3.246 1.265-7.198 1.297-11.019 1.328-2.054.017-4.022.033-5.824.248 3.243-7.831 9.064-8.604 15.27-8.604.863 0 1.73.018 2.568.035.837.016 1.628.032 2.416.032 1.13 0 2.06-.034 2.883-.109Z"/>
  <path fill="#FFF" d="M92.397 12.977v15.396h-3.49V15.969h-6.402v12.405h-3.49V12.977h13.382Zm7.513 9.051h1.955v-2.736H99.91c-.956 0-1.512.6-1.512 1.377 0 .778.556 1.353 1.512 1.353m5.445-5.603v11.949h-3.49v-3.61h-1.351l-2.421 3.61h-3.724l2.887-4.25c-1.464-.576-2.349-1.77-2.349-3.514 0-2.481 1.883-4.179 4.842-4.179h5.606v-.006Zm21.877 11.954h-3.491v-6.546c0-1.77-.651-2.618-2.002-2.618-1.351 0-2.14 1.033-2.188 2.481v6.683h-3.49v-6.546c0-1.77-.652-2.618-2.002-2.618-1.351 0-2.14 1.033-2.188 2.481v6.683h-3.491V16.425h3.491v1.152c.723-.944 1.817-1.496 3.234-1.496 1.93 0 3.233.872 3.909 2.345.699-1.449 1.954-2.345 3.771-2.345 2.953 0 4.447 2 4.447 5.122v7.17ZM136.699 13c0-1.127.932-2 2.074-2 1.141 0 2.068.873 2.068 2 0 1.128-.933 2.042-2.068 2.042-1.136 0-2.074-.92-2.074-2.042Zm-3.282 7.812h5.631c-.395-1.265-1.375-1.864-2.792-1.864-1.416 0-2.397.688-2.839 1.864ZM131.648 13c0-1.127.932-2 2.068-2 1.136 0 2.074.873 2.074 2 0 1.128-.932 2.042-2.074 2.042s-2.068-.92-2.068-2.042Zm8.493 11.397 1.817 2.57c-1.07 1.033-2.952 1.745-5.236 1.745-4.231 0-6.933-2.386-6.933-6.316 0-3.65 2.744-6.315 6.467-6.315 4.023 0 6.629 3.033 6.192 7.17h-9.216c.329 1.472 1.536 2.345 3.514 2.345 1.513 0 2.63-.529 3.395-1.193m13.778-2.054c0-1.905-1.207-3.17-3.025-3.17-1.817 0-3 .944-3.048 2.369v1.495c0 1.538 1.208 2.57 3.048 2.57 1.841 0 3.025-1.311 3.025-3.264Zm-6.073-5.93v1.472c.885-1.151 2.236-1.816 3.885-1.816 3.306 0 5.679 2.618 5.679 6.274s-2.349 6.363-5.679 6.363c-1.649 0-3-.665-3.885-1.84v6.09h-3.49V16.419h3.49Zm20.759 5.93c0-1.793-1.118-3.17-3.024-3.17-1.907 0-3.049 1.377-3.049 3.17 0 1.792 1.118 3.264 3.049 3.264 1.93 0 3.024-1.4 3.024-3.264Zm-9.563 0c0-3.561 2.767-6.274 6.539-6.274 3.771 0 6.515 2.713 6.515 6.274s-2.768 6.363-6.515 6.363c-3.748 0-6.539-2.736-6.539-6.363Zm13.985-5.924h3.49v3.33c0 1.217.58 1.745 1.931 1.745.885 0 1.464-.136 2.259-.528v-4.547h3.491v11.948h-3.491v-4.522c-.884.439-1.817.664-3.144.664-3.048 0-4.536-1.697-4.536-4.386v-3.704Zm16.754 0v5.378l4.794-5.378h3.724l-5.027 5.603 5.26 6.346h-4.19l-4.561-5.497v5.497h-3.49V16.425h3.49Z"/>
  <path fill="#FFF" d="M207.509 23.156V21.66c0-1.495-1.231-2.48-3.048-2.48s-3.024 1.264-3.024 3.169 1.207 3.264 3.024 3.264 2.977-.985 3.048-2.457ZM211 28.374h-3.491v-1.496c-.908 1.17-2.259 1.84-3.885 1.84-3.329 0-5.678-2.642-5.678-6.363 0-3.722 2.373-6.274 5.678-6.274 1.632 0 2.977.665 3.885 1.816v-1.472H211v11.948ZM82.505 47.243v2.344h2.349c.932 0 1.416-.48 1.416-1.169 0-.688-.466-1.17-1.416-1.17h-2.35v-.005Zm0-4.505v2.09h1.793c.908 0 1.488-.434 1.488-1.081s-.442-1.01-1.488-1.01h-1.793Zm-3.49 9.396V40.185h5.934c2.582 0 4.4 1.241 4.4 3.081 0 1.24-.676 2.137-1.77 2.641 1.375.44 2.284 1.377 2.284 2.802 0 2.066-1.841 3.425-4.28 3.425h-6.569Zm25.108-11.943h3.491V52.14h-3.491V40.19Zm-8.446 6.41v2.666h2.027c.98 0 1.56-.6 1.56-1.377 0-.778-.58-1.288-1.56-1.288h-2.026Zm-3.49 5.539V40.19h3.49v3.538h2.116c3.001 0 4.955 1.698 4.955 4.16 0 2.298-1.93 4.25-4.955 4.25h-5.606Zm28.015-6.019c0-1.905-1.207-3.17-3.024-3.17s-3.001.944-3.049 2.369v1.495c0 1.538 1.208 2.57 3.049 2.57s3.024-1.311 3.024-3.264Zm-6.073-5.93v1.472c.885-1.151 2.236-1.816 3.886-1.816 3.305 0 5.678 2.618 5.678 6.274s-2.349 6.363-5.678 6.363c-1.65 0-3.001-.665-3.886-1.84v6.09h-3.49V40.19h3.49Zm11.782-.071h3.49v6.547c0 1.769.813 2.618 2.469 2.618s2.654-1.08 2.654-2.594v-6.57h3.49v9.947c0 5.01-2.839 6.82-7.238 6.82-1.44 0-2.935-.16-4.094-.712v-3.057h.49c1.07.6 2.211.784 3.628.784 2.582 0 3.604-.986 3.7-3.218-.837 1.08-2.14 1.722-3.796 1.722-3.257 0-4.793-2-4.793-5.123v-7.17.006Zm14.769.071h3.491v3.33c0 1.217.579 1.745 1.93 1.745.885 0 1.465-.136 2.26-.528v-4.547h3.49V52.14h-3.49v-4.523c-.885.439-1.817.665-3.144.665-3.049 0-4.537-1.698-4.537-4.387v-3.704Zm62.76 11.949h-3.491v-6.547c0-1.77-.651-2.618-2.002-2.618-1.351 0-2.14 1.033-2.188 2.481v6.684h-3.49v-6.547c0-1.77-.652-2.618-2.003-2.618s-2.139 1.033-2.187 2.481v6.684h-3.491V40.19h3.491v1.152c.723-.944 1.817-1.496 3.233-1.496 1.931 0 3.234.873 3.909 2.345.7-1.449 1.955-2.345 3.772-2.345 2.953 0 4.447 2 4.447 5.122v7.17Zm7.118-14.661-.508 10.084h-2.672l-.508-10.084h3.688Zm-1.931 15.444c-1.01 0-1.793-.724-1.793-1.816s.783-1.816 1.793-1.816c1.01 0 1.817.724 1.817 1.816s-.783 1.816-1.817 1.816Zm-35.545-8.416h5.631c-.395-1.265-1.375-1.864-2.792-1.864-1.416 0-2.396.688-2.839 1.864Zm6.724 3.585 1.817 2.57c-1.069 1.033-2.952 1.745-5.235 1.745-4.232 0-6.934-2.386-6.934-6.316 0-3.65 2.744-6.315 6.467-6.315 4.023 0 6.629 3.033 6.193 7.164h-9.217c.329 1.472 1.536 2.345 3.514 2.345 1.513 0 2.63-.529 3.395-1.193Zm-16.21-1.205V45.39c0-1.496-1.231-2.481-3.049-2.481-1.817 0-3.024 1.264-3.024 3.17 0 1.905 1.207 3.264 3.024 3.264 1.818 0 2.977-.985 3.049-2.457Zm3.49 5.217h-3.49v-1.496c-.909 1.17-2.26 1.84-3.885 1.84-3.33 0-5.679-2.641-5.679-6.363 0-3.721 2.373-6.273 5.679-6.273 1.631 0 2.976.664 3.885 1.816v-1.472h3.49v11.948Z"/>
</svg>
