<svg xmlns="http://www.w3.org/2000/svg" xmlns:xlink="http://www.w3.org/1999/xlink" width="136" height="174" fill="none" viewBox="0 0 136 174">
  <defs>
    <path id="a" fill="#fff" d="M135.944 0H0v173.044h135.944V0Z"/>
  </defs>
  <mask id="b" width="136" height="174" x="0" y="0" maskUnits="userSpaceOnUse" style="mask-type:luminance">
    <use xlink:href="#a"/>
  </mask>
  <g mask="url(#b)">
    <path fill="#fff" d="M67.97 0C30.487 0-.005 30.492-.005 67.973c0 37.479 30.492 67.971 67.973 67.971 37.481 0 67.971-30.492 67.971-67.97C135.94 30.491 105.45 0 67.97 0Z"/>
  </g>
  <mask id="c" width="136" height="174" x="0" y="0" maskUnits="userSpaceOnUse" style="mask-type:luminance">
    <use xlink:href="#a"/>
  </mask>
  <g mask="url(#c)">
    <path fill="#E52322" d="M105.488 21.455c-8.298 21.559-30.33 18.768-45.865 19.307L55.85 55.467c19.166-15.622 44.513-.13 41.802 23.445-1.826 15.88-13.148 26.265-25.122 29.251-13.049 3.254-27.504-1.616-33.988-14.913-.685-1.406-1.884-4.216-2.341-5.724l13.763-3.534c.239.793.653 1.56 1.088 2.26 9.211 14.854 27.876 7.426 29.983-7.984 2.146-15.681-19.855-24.031-29.881-5.709l-12.202-5.201-.21-.09 4.544-18.233c.724-3.243 2.887-11.712 3.137-12.53.388-1.267.474-1.688.91-2.838 7.821-20.549 23.279-22.622 37.017-22.622.55 0 1.091.007 1.634.014a59.539 59.539 0 0 0-17.732-2.684c-32.914 0-59.596 26.683-59.596 59.596 0 32.915 26.681 59.598 59.596 59.598 32.915 0 59.597-26.683 59.597-59.598 0-18.82-8.733-35.595-22.361-46.516Z"/>
  </g>
  <mask id="d" width="136" height="174" x="0" y="0" maskUnits="userSpaceOnUse" style="mask-type:luminance">
    <use xlink:href="#a"/>
  </mask>
  <g mask="url(#d)">
    <path fill="#00923A" d="M100.06 17.428c-2.31 7.178-6.34 11.69-12.57 14.117-6.48 2.526-14.37 2.591-22.002 2.652-4.101.034-8.032.068-11.629.496 6.475-15.638 18.097-17.182 30.493-17.182 1.724 0 3.454.036 5.127.07 1.672.034 3.25.065 4.823.065 2.258 0 4.112-.07 5.758-.218Z"/>
  </g>
  <mask id="e" width="136" height="174" x="0" y="0" maskUnits="userSpaceOnUse" style="mask-type:luminance">
    <use xlink:href="#a"/>
  </mask>
  <g mask="url(#e)">
    <path fill="#fff" d="M.059 168.081v-12.476h6.118c2.664 0 4.535 1.294 4.535 3.214 0 1.296-.694 2.231-1.824 2.761 1.418.455 2.353 1.437 2.353 2.927 0 2.159-1.895 3.574-4.415 3.574H.06Zm3.601-9.814v2.183h1.846c.935 0 1.537-.455 1.537-1.126 0-.672-.458-1.057-1.537-1.057H3.66Zm0 4.703v2.448h2.423c.96 0 1.462-.505 1.462-1.224s-.48-1.224-1.462-1.224H3.66Zm9.982 5.111v-12.476h3.599v3.694h2.183c3.095 0 5.11 1.776 5.11 4.343 0 2.4-1.993 4.439-5.11 4.439h-5.782Zm3.599-5.783v2.784h2.087c1.007 0 1.606-.625 1.606-1.44 0-.791-.6-1.344-1.607-1.344h-2.086Zm8.708-6.693h3.599v12.476h-3.6v-12.476Zm10.32 0v1.535c.91-1.199 2.303-1.896 4.006-1.896 3.406 0 5.855 2.736 5.855 6.55 0 3.887-2.425 6.646-5.855 6.646-1.703 0-3.096-.694-4.007-1.918v6.357H32.67v-17.274h3.6Zm6.262 6.189c0-1.99-1.248-3.311-3.119-3.311-1.825 0-3.096.985-3.144 2.472v1.56c0 1.607 1.247 2.686 3.144 2.686 1.87 0 3.12-1.368 3.12-3.407Zm5.882-6.266h3.6v6.838c0 1.846.84 2.734 2.544 2.734 1.654 0 2.734-1.127 2.734-2.709v-6.863h3.599v10.388c0 5.23-2.925 7.126-7.462 7.126-1.488 0-3.022-.167-4.223-.744v-3.191h.504c1.105.624 2.281.816 3.744.816 2.664 0 3.718-1.033 3.815-3.358-.865 1.126-2.208 1.798-3.912 1.798-3.358 0-4.943-2.087-4.943-5.35v-7.485Zm15.233.077h3.6v3.48c0 1.271.6 1.823 1.991 1.823.91 0 1.513-.144 2.329-.552v-4.751h3.599v12.476h-3.6v-4.728c-.912.458-1.872.697-3.24.697-3.142 0-4.679-1.776-4.679-4.582v-3.863Zm64.714 12.476h-3.599v-6.837c0-1.848-.671-2.736-2.064-2.736-1.343 0-2.207 1.079-2.254 2.591v6.982h-3.599v-6.837c0-1.848-.672-2.736-2.064-2.736-1.344 0-2.207 1.079-2.256 2.591v6.982h-3.597v-12.476h3.597v1.199c.743-.985 1.873-1.56 3.335-1.56 1.992 0 3.336.911 4.032 2.448.719-1.512 2.015-2.448 3.885-2.448 3.05 0 4.584 2.087 4.584 5.351v7.486Zm5.346.825c-1.046 0-1.852-.757-1.852-1.897 0-1.091.806-1.898 1.852-1.898 1.068 0 1.873.76 1.873 1.898 0 1.14-.805 1.897-1.873 1.897Zm1.992-16.132-.52 10.534h-2.754l-.523-10.534h3.797Zm-31.709 11.079 1.871 2.689c-1.105 1.08-3.047 1.823-5.398 1.823-4.368 0-7.15-2.494-7.15-6.598 0-3.816 2.832-6.599 6.67-6.599 4.149 0 6.838 3.168 6.382 7.487h-9.501c.336 1.534 1.582 2.447 3.622 2.447 1.561 0 2.711-.552 3.504-1.249Zm-6.934-3.741h5.805c-.408-1.32-1.415-1.945-2.878-1.945-1.44 0-2.472.722-2.927 1.945Zm-6.18 7.929h-3.6v-1.56c-.934 1.224-2.327 1.918-4.006 1.918-3.43 0-5.855-2.758-5.855-6.646 0-3.815 2.447-6.549 5.855-6.549 1.679 0 3.072.696 4.007 1.895v-1.535h3.599v12.477Zm-3.6-5.447v-1.56c0-1.559-1.27-2.592-3.143-2.592-1.87 0-3.12 1.321-3.12 3.311 0 2.04 1.25 3.408 3.12 3.408 1.848 0 3.072-1.033 3.144-2.567Z"/>
  </g>
</svg>
